<svg id="Layer_1" data-name="Layer 1" xmlns="http://www.w3.org/2000/svg" xmlns:xlink="http://www.w3.org/1999/xlink" viewBox="0 0 631.63 700"><defs><style>.cls-1{fill:#005383;}.cls-2{fill:#5af2b4;}.cls-3{fill:#059bf2;}.cls-4{fill:#0796e8;}.cls-5{fill:url(#linear-gradient);}.cls-6{fill:url(#linear-gradient-2);}.cls-7{fill:url(#linear-gradient-3);}.cls-8{fill:url(#linear-gradient-4);}.cls-9{fill:url(#linear-gradient-5);}.cls-10{fill:url(#linear-gradient-6);}.cls-11{fill:url(#linear-gradient-7);}</style><linearGradient id="linear-gradient" x1="518.82" y1="-123.14" x2="34.14" y2="509.97" gradientUnits="userSpaceOnUse"><stop offset="0.16" stop-color="#00c170"/><stop offset="1" stop-color="#005383"/></linearGradient><linearGradient id="linear-gradient-2" x1="5175.32" y1="1653.47" x2="5468.37" y2="1343.91" gradientTransform="translate(5541.7 1670.99) rotate(180)" xlink:href="#linear-gradient"/><linearGradient id="linear-gradient-3" x1="5475.9" y1="1356.63" x2="5370.65" y2="1514.5" gradientTransform="translate(5541.7 1670.99) rotate(180)" xlink:href="#linear-gradient"/><linearGradient id="linear-gradient-4" x1="670.63" y1="683.54" x2="171.71" y2="-239.62" xlink:href="#linear-gradient"/><linearGradient id="linear-gradient-5" x1="5470.81" y1="1369.46" x2="5471.46" y2="1369.46" gradientTransform="translate(5541.7 1670.99) rotate(180)" xlink:href="#linear-gradient"/><linearGradient id="linear-gradient-6" x1="1002.82" y1="433.42" x2="515.04" y2="378.09" xlink:href="#linear-gradient"/><linearGradient id="linear-gradient-7" x1="-304.08" y1="378.98" x2="908.87" y2="349.1" xlink:href="#linear-gradient"/></defs><path class="cls-1" d="M585.76,590.11v.31a5.51,5.51,0,0,0,5.51,5.47h24.24c3,0,5.47-3,5.47-6v-.32c0-3-.89-6.36-5.47-6.36H594c-5.54,0-18.92-2-18.92-17.49A18.91,18.91,0,0,1,594,546.83h18.7a18.88,18.88,0,0,1,18.89,18.89H621a8.25,8.25,0,0,0-8.24-8.24H594a8.28,8.28,0,0,0-8.28,8.24c0,4.54,3.73,6.8,8.28,6.8h21.47A15.83,15.83,0,0,1,626.66,577a13.87,13.87,0,0,1,2.09,2.48,18.93,18.93,0,0,1,2.88,10.06v.32c0,8.91-7.21,16.69-16.12,16.69H591.27a16.16,16.16,0,0,1-16.15-16.16v-.31Z"/><path class="cls-1" d="M126.69,547.2v10.66h-8.07v49.08H108V557.86H83.42V547.2Z"/><rect class="cls-2" x="132.44" y="547.16" width="10.74" height="10.74" transform="translate(690.35 414.72) rotate(90)"/><path class="cls-1" d="M483.62,547.2v10.66h-8.07v49.08H464.89V557.86H440.35V547.2Z"/><rect class="cls-3" x="489.37" y="547.16" width="10.74" height="10.74" transform="translate(1047.28 57.79) rotate(90)"/><path class="cls-1" d="M414.28,562.47V607l-10.68-8.23-38.41-29.61V607H354.5V547.4l10.69,8.23,38.41,29.61V562.47Z"/><rect class="cls-4" x="403.59" y="547.26" width="10.61" height="10.61" transform="translate(961.46 143.67) rotate(90)"/><path class="cls-1" d="M60.91,606.94H49l-5.47-10.68-13-25.6-13,25.6L12,606.94H0l5.43-10.68,25-49.1,25,49.1Z"/><path class="cls-1" d="M318,606.94H306l-5.47-10.68-13-25.6-13,25.6L269,606.94h-12l5.43-10.68,25-49.1,25,49.1Z"/><path class="cls-1" d="M533,607V547.24h10.66V607Z"/><path class="cls-1" d="M209.13,596.28v10.65H194.54a18.93,18.93,0,0,1-8.38-2,19.23,19.23,0,0,1-10.65-17.07V547.18h10.65V589a8.53,8.53,0,0,0,7.32,7.32Z"/><rect class="cls-4" x="214.29" y="596.43" width="10.61" height="10.61" transform="translate(821.33 382.15) rotate(90)"/><path class="cls-1" d="M322.25,689.21l5.42,10.66H315.73l-5.45-10.66L304.58,678l-.25-.47a10.59,10.59,0,0,0-9.07-5.1H284.63v12.68H274V640.22h37.64A16,16,0,0,1,323,644.93,16.15,16.15,0,0,1,318.3,671a15,15,0,0,1-4.64,1.31h0Zm-10.61-27.38a4.94,4.94,0,0,0,2.23-.49,5.45,5.45,0,0,0,3.22-5,5.71,5.71,0,0,0-1.63-3.93,5.41,5.41,0,0,0-3.82-1.56h-27v11Z"/><rect class="cls-4" x="274.01" y="689.37" width="10.59" height="10.59" transform="translate(973.96 415.36) rotate(90)"/><path class="cls-1" d="M109.17,700V655.65h10.67v22.63L139,663.51l19.17,14.77v-38h10.66V700L139,677Z"/><rect class="cls-2" x="109.16" y="640.23" width="10.59" height="10.59" transform="translate(-531.06 759.97) rotate(-90)"/><path class="cls-1" d="M251.61,670.13a29.81,29.81,0,1,1-29.81-29.81A29.82,29.82,0,0,1,251.61,670.13Zm-10.63,0a19.19,19.19,0,1,0-19.18,19.19A19.2,19.2,0,0,0,241,670.13Z"/><path class="cls-3" d="M229.76,670.09a7.28,7.28,0,1,1-7.27-7.28A7.27,7.27,0,0,1,229.76,670.09Z"/><path class="cls-1" d="M493,640.32H463.12V651H493a19.18,19.18,0,0,1,0,38.36h-19.2l-10.63,0v10.59H493a29.53,29.53,0,0,0,21-8.75c.6-.6,1.17-1.24,1.7-1.88a29.41,29.41,0,0,0,7-19.2A29.79,29.79,0,0,0,493,640.32Z"/><rect class="cls-3" x="463.13" y="673.45" width="10.59" height="10.59"/><rect class="cls-3" x="463.13" y="657.21" width="10.59" height="10.59"/><path class="cls-1" d="M405,689.26v10.63H390.4a18.83,18.83,0,0,1-8.36-1.95,19.23,19.23,0,0,1-10.63-17V640.27H382V682a8.5,8.5,0,0,0,7.3,7.3Z"/><rect class="cls-2" x="410.1" y="689.41" width="10.59" height="10.59" transform="translate(1110.1 279.31) rotate(90)"/><path class="cls-5" d="M407.05,36.77a93.29,93.29,0,0,0-12.22-10.59C361.66,2.15,336.36-1.56,305,.48c-40.08,2.62-61.67,18.86-80.86,39C166.54,99.31,121.7,162,85.15,230.58c-33.81,73.06-17,114.11,66,64.79,47.71-67,105.3-126.27,163.77-183,55.16-53.53,133.74-20.19,178.58,29.19C466.45,105.19,438.64,69.25,407.05,36.77Z"/><path class="cls-6" d="M19.75,382.5c-.41,1.2-.84,2.38-1.25,3.58l.14-.06C19,384.85,19.38,383.66,19.75,382.5Z"/><path class="cls-7" d="M19.75,382.5c-.41,1.2-.84,2.38-1.25,3.58l.14-.06C19,384.85,19.38,383.66,19.75,382.5Z"/><path class="cls-8" d="M617.38,393.69C585.93,299,546.58,216.21,491.9,139.82,447.09,91.7,370.41,59.88,316,111.43,374.32,170,431.5,231.9,479.73,291.91c.89,1.11,1.72,2.18,2.54,3.26h0l.17.22,1.38,1.82,2.13,2.88.07.1a110.93,110.93,0,0,1,11.84,19.88c25.13,57.48-13.78,55.28-51.45,50.23.07,0,.07,0,0,0h0c-1.94-.51-66.12-17-65.83-16.76q-6-1.2-12-2.17c68.13,17,122.37,38,168,75.85A373.54,373.54,0,0,1,582.63,473c25.42,29.94,38.57,42.91,44.86,31.94C636.31,489.52,630.14,440,617.38,393.69Z"/><path class="cls-9" d="M70.89,302.51c-.24-.64-.46-1.29-.65-2C70.44,301.21,70.66,301.87,70.89,302.51Z"/><path class="cls-10" d="M446.42,370.3h0C446.49,370.32,446.49,370.32,446.42,370.3Z"/><path class="cls-11" d="M497.87,320.07c-3.1-7.08-8.17-15.32-15.59-24.9-102.25-47.31-226.68-47.28-329-1C68,345.7,50.86,303.88,85.63,229.51,51.45,291.57,27.7,351.75,8.55,419.66c-13.93,55.56-9.13,90.93,2.22,91.42,7.69.32,18.51-12.06,32.43-28.91C79.75,438,125.41,401.79,177.65,378.08c66.22-30.06,134.81-38.26,202.94-24.54-.29-.2,63.89,16.25,65.83,16.76C484.09,375.35,523,377.55,497.87,320.07Z"/></svg>