<svg id="Layer_1" data-name="Layer 1" xmlns="http://www.w3.org/2000/svg" xmlns:xlink="http://www.w3.org/1999/xlink" viewBox="0 0 700 566.4"><defs><style>.cls-1{fill:url(#linear-gradient);}.cls-2{fill:url(#linear-gradient-2);}.cls-3{fill:url(#linear-gradient-3);}.cls-4{fill:url(#linear-gradient-4);}.cls-5{fill:url(#linear-gradient-5);}.cls-6{fill:url(#linear-gradient-6);}.cls-7{fill:url(#linear-gradient-7);}</style><linearGradient id="linear-gradient" x1="574.98" y1="-136.47" x2="37.84" y2="565.17" gradientUnits="userSpaceOnUse"><stop offset="0.16" stop-color="#00c170"/><stop offset="1" stop-color="#005383"/></linearGradient><linearGradient id="linear-gradient-2" x1="5204.03" y1="1706.9" x2="5528.8" y2="1363.83" gradientTransform="translate(5610.07 1726.31) rotate(180)" xlink:href="#linear-gradient"/><linearGradient id="linear-gradient-3" x1="5537.15" y1="1377.93" x2="5420.51" y2="1552.89" gradientTransform="translate(5610.07 1726.31) rotate(180)" xlink:href="#linear-gradient"/><linearGradient id="linear-gradient-4" x1="743.22" y1="757.53" x2="190.29" y2="-265.56" xlink:href="#linear-gradient"/><linearGradient id="linear-gradient-5" x1="5531.51" y1="1392.15" x2="5532.23" y2="1392.15" gradientTransform="translate(5610.07 1726.31) rotate(180)" xlink:href="#linear-gradient"/><linearGradient id="linear-gradient-6" x1="1111.37" y1="480.34" x2="570.79" y2="419.01" xlink:href="#linear-gradient"/><linearGradient id="linear-gradient-7" x1="-337" y1="420" x2="1007.25" y2="386.89" xlink:href="#linear-gradient"/></defs><path class="cls-1" d="M451.12,40.75A104.39,104.39,0,0,0,437.57,29C400.81,2.38,372.77-1.73,338,.54c-44.42,2.89-68.34,20.89-89.61,43.17-63.79,66.35-113.49,135.82-154,211.83-37.47,81-18.84,126.46,73.17,71.81C220.41,253.08,284.24,187.41,349,124.52c61.13-59.34,148.22-22.38,197.91,32.34C516.94,116.57,486.12,76.74,451.12,40.75Z"/><path class="cls-2" d="M21.89,423.9c-.46,1.33-.93,2.64-1.39,4l.16-.07C21.07,426.51,21.47,425.19,21.89,423.9Z"/><path class="cls-3" d="M21.89,423.9c-.46,1.33-.93,2.64-1.39,4l.16-.07C21.07,426.51,21.47,425.19,21.89,423.9Z"/><path class="cls-4" d="M684.21,436.31c-34.85-105-78.47-196.69-139.06-281.36-49.67-53.33-134.65-88.59-195-31.45,64.69,64.92,128.06,133.5,181.5,200,1,1.22,1.91,2.42,2.83,3.61h0l.18.24c.53.69,1,1.36,1.53,2,.82,1.07,1.6,2.14,2.36,3.19l.08.1a122.87,122.87,0,0,1,13.12,22c27.86,63.7-15.27,61.26-57,55.66.07,0,.07,0,0,0h0c-2.16-.56-73.29-18.79-73-18.57-4.42-.89-8.85-1.68-13.28-2.41,75.5,18.84,135.62,42.14,186.16,84.07a413.52,413.52,0,0,1,51,50.7c28.18,33.19,42.75,47.57,49.72,35.41C705.19,542.51,698.35,487.66,684.21,436.31Z"/><path class="cls-5" d="M78.56,335.25c-.26-.7-.5-1.43-.72-2.18C78.06,333.82,78.3,334.54,78.56,335.25Z"/><path class="cls-6" d="M494.75,410.38h0C494.82,410.4,494.82,410.4,494.75,410.38Z"/><path class="cls-7" d="M551.76,354.72c-3.44-7.85-9.06-17-17.27-27.6C421.17,274.69,283.26,274.73,169.9,326c-94.55,57.16-113.54,10.81-75-71.6C57,323.13,30.7,389.82,9.47,465.09-6,526.66-.64,565.86,11.94,566.4c8.52.36,20.51-13.36,35.94-32,40.5-49,91.1-89.08,149-115.35,73.4-33.32,149.41-42.41,224.91-27.2-.32-.22,70.82,18,73,18.57C536.49,416,579.62,418.42,551.76,354.72Z"/></svg>