<?xml version="1.0" encoding="utf-8"?>
<!-- Generator: Adobe Illustrator 25.2.3, SVG Export Plug-In . SVG Version: 6.00 Build 0)  -->
<svg version="1.1" id="Layer_1" xmlns="http://www.w3.org/2000/svg" xmlns:xlink="http://www.w3.org/1999/xlink" x="0px" y="0px"
	 viewBox="0 0 708.8 167.1" style="enable-background:new 0 0 708.8 167.1;" xml:space="preserve">
<style type="text/css">
	.st0{fill:#005383;}
	.st1{fill:#5AF2B4;}
	.st2{fill:#059BF2;}
	.st3{fill:#0796E8;}
	.st4{fill:url(#SVGID_1_);}
	.st5{fill:url(#SVGID_2_);}
	.st6{fill:url(#SVGID_3_);}
	.st7{fill:url(#SVGID_4_);}
	.st8{fill:url(#SVGID_5_);}
	.st9{fill:url(#SVGID_6_);}
	.st10{fill:url(#SVGID_7_);}
</style>
<g>
	<path class="st0" d="M674.6,58.8V59c0,2.2,1.9,4.1,4.1,4.1h18.1c2.2,0,4.1-2.2,4.1-4.5v-0.2c0-2.2-0.7-4.7-4.1-4.7h-16
		c-4.1,0-14.1-1.5-14.1-13c0-7.8,6.3-14.1,14.1-14.1h13.9c7.8,0,14.1,6.3,14.1,14.1h-7.9c0-3.4-2.8-6.1-6.1-6.1h-13.9
		c-3.4,0-6.2,2.7-6.2,6.1c0,3.4,2.8,5.1,6.2,5.1h16c3.3,0,6.2,1.3,8.3,3.4c0.6,0.6,1.1,1.2,1.6,1.9c1.3,1.9,2.1,5,2.1,7.5v0.2
		c0,6.6-5.4,12.4-12,12.4h-18.1c-6.6,0-12-5.4-12-12v-0.2H674.6z"/>
	<g>
		<path class="st0" d="M332.7,26.8v7.9h-6v36.6h-7.9V34.7h-18.3v-7.9H332.7z"/>
		
			<rect x="337" y="26.8" transform="matrix(-1.836970e-16 1 -1 -1.836970e-16 371.7887 -310.24)" class="st1" width="8" height="8"/>
	</g>
	<g>
		<path class="st0" d="M598.5,26.8v7.9h-6v36.6h-7.9V34.7h-18.3v-7.9H598.5z"/>
		
			<rect x="602.8" y="26.8" transform="matrix(-1.836970e-16 1 -1 -1.836970e-16 637.5916 -576.0428)" class="st2" width="8" height="8"/>
	</g>
	<g>
		<path class="st0" d="M546.9,38.2v33.1l-8-6.1l-28.6-22v28.2h-8V26.9l8,6.1l28.6,22v-17H546.9z"/>
		
			<rect x="538.9" y="26.8" transform="matrix(-1.836970e-16 1 -1 -1.836970e-16 573.6829 -512.0894)" class="st3" width="7.9" height="7.9"/>
	</g>
	<path class="st0" d="M283.7,71.3h-8.9l-4.1-8l-9.7-19.1l-9.7,19.1l-4.1,8h-8.9l4-8l18.6-36.6l18.6,36.6L283.7,71.3z"/>
	<path class="st0" d="M475.2,71.3h-8.9l-4.1-8l-9.7-19.1l-9.7,19.1l-4.1,8h-8.9l4-8l18.6-36.6l18.6,36.6L475.2,71.3z"/>
	<path class="st0" d="M635.3,71.3V26.8h7.9v44.5H635.3z"/>
	<g>
		<path class="st0" d="M394.1,63.3v7.9h-10.9c-2.2,0-4.4-0.5-6.2-1.5c-2.8-1.4-5.1-3.6-6.4-6.5c-1-1.9-1.5-4-1.5-6.2V26.8h7.9v31.1
			c0.4,2.8,2.6,5.1,5.4,5.4H394.1z"/>
		
			<rect x="398" y="63.5" transform="matrix(-1.836970e-16 1 -1 -1.836970e-16 469.3267 -334.4994)" class="st3" width="7.9" height="7.9"/>
	</g>
	<g>
		<path class="st0" d="M397.1,132.6l4,7.9h-8.9l-4.1-7.9l-4.2-8.3l-0.2-0.4c-1.4-2.3-3.9-3.8-6.8-3.8h-7.9v9.4h-7.9V96.1h28
			c3.3,0,6.3,1.3,8.5,3.5c2.2,2.2,3.5,5.2,3.5,8.5c0,4.9-2.9,9-7,10.9c-1.1,0.5-2.2,0.8-3.5,1c0,0,0,0,0,0L397.1,132.6z
			 M389.2,112.2c0.6,0,1.1-0.1,1.7-0.4c1.5-0.7,2.4-2.1,2.4-3.7c0-1.5-0.8-2.5-1.2-2.9c-0.5-0.5-1.5-1.2-2.8-1.2h-20.1v8.2H389.2z"
			/>
		
			<rect x="361.1" y="132.7" transform="matrix(-1.836970e-16 1 -1 -1.836970e-16 501.7009 -228.4691)" class="st3" width="7.9" height="7.9"/>
	</g>
	<g>
		<path class="st0" d="M238.4,140.6v-33h7.9v16.9l14.3-11l14.3,11V96.1h7.9v44.4l-22.2-17.1L238.4,140.6z"/>
		
			<rect x="238.4" y="96.1" transform="matrix(6.123234e-17 -1 1 6.123234e-17 142.3096 342.3452)" class="st1" width="7.9" height="7.9"/>
	</g>
	<g>
		<path class="st0" d="M344.5,118.3c0,12.3-9.9,22.2-22.2,22.2c-12.3,0-22.2-9.9-22.2-22.2c0-12.3,9.9-22.2,22.2-22.2
			S344.5,106.1,344.5,118.3z M336.6,118.3c0-7.9-6.4-14.3-14.3-14.3c-7.9,0-14.3,6.4-14.3,14.3s6.4,14.3,14.3,14.3
			C330.1,132.6,336.6,126.2,336.6,118.3z"/>
		<path class="st2" d="M328.2,118.3c0,3-2.4,5.4-5.4,5.4c-3,0-5.4-2.4-5.4-5.4c0-3,2.4-5.4,5.4-5.4
			C325.8,112.9,328.2,115.3,328.2,118.3z"/>
	</g>
	<g>
		<path class="st0" d="M524.2,96.1H502v7.9h7.9h14.3c7.9,0,14.3,6.4,14.3,14.3c0,7.9-6.4,14.3-14.3,14.3h-14.3l-7.9,0v7.9h22.2
			c6.1,0,11.7-2.5,15.7-6.5c0.4-0.4,0.9-0.9,1.3-1.4c3.3-3.9,5.2-8.9,5.2-14.3C546.4,106.1,536.4,96.1,524.2,96.1z"/>
		<rect x="502" y="120.8" class="st2" width="7.9" height="7.9"/>
		<rect x="502" y="108.7" class="st2" width="7.9" height="7.9"/>
	</g>
	<g>
		<path class="st0" d="M458.7,132.6v7.9h-10.8c-2.2,0-4.4-0.5-6.2-1.5c-2.8-1.4-5.1-3.6-6.4-6.5c-1-1.9-1.5-4-1.5-6.2V96.1h7.9v31.1
			c0.4,2.8,2.6,5.1,5.4,5.4H458.7z"/>
		
			<rect x="462.5" y="132.7" transform="matrix(-1.836970e-16 1 -1 -1.836970e-16 603.0842 -329.7876)" class="st1" width="7.9" height="7.9"/>
	</g>
</g>
<g>
	<linearGradient id="SVGID_1_" gradientUnits="userSpaceOnUse" x1="169.6497" y1="-40.2665" x2="11.165" y2="166.7539">
		<stop  offset="0.1619" style="stop-color:#00C170"/>
		<stop  offset="1" style="stop-color:#005383"/>
	</linearGradient>
	<path class="st4" d="M133.1,12c-1.2-1.3-2.6-2.4-4-3.5C118.3,0.7,110-0.5,99.7,0.2C86.6,1,79.6,6.3,73.3,12.9
		C54.5,32.5,39.8,53,27.8,75.4c-11.1,23.9-5.6,37.3,21.6,21.2C65,74.7,83.9,55.3,103,36.7c18-17.5,43.7-6.6,58.4,9.5
		C152.5,34.4,143.4,22.6,133.1,12z"/>
	
		<linearGradient id="SVGID_2_" gradientUnits="userSpaceOnUse" x1="5498.145" y1="1134.3021" x2="5593.9692" y2="1033.0793" gradientTransform="matrix(-1 0 0 -1 5617.9473 1140.0293)">
		<stop  offset="0.1619" style="stop-color:#00C170"/>
		<stop  offset="1" style="stop-color:#005383"/>
	</linearGradient>
	<path class="st5" d="M6.5,125.1c-0.1,0.4-0.3,0.8-0.4,1.2c0,0,0,0,0,0C6.2,125.8,6.3,125.5,6.5,125.1z"/>
	
		<linearGradient id="SVGID_3_" gradientUnits="userSpaceOnUse" x1="5596.4321" y1="1037.2378" x2="5562.0171" y2="1088.8604" gradientTransform="matrix(-1 0 0 -1 5617.9473 1140.0293)">
		<stop  offset="0.1619" style="stop-color:#00C170"/>
		<stop  offset="1" style="stop-color:#005383"/>
	</linearGradient>
	<path class="st6" d="M6.5,125.1c-0.1,0.4-0.3,0.8-0.4,1.2c0,0,0,0,0,0C6.2,125.8,6.3,125.5,6.5,125.1z"/>
	<linearGradient id="SVGID_4_" gradientUnits="userSpaceOnUse" x1="219.2888" y1="223.5099" x2="56.1467" y2="-78.3524">
		<stop  offset="0.1619" style="stop-color:#00C170"/>
		<stop  offset="1" style="stop-color:#005383"/>
	</linearGradient>
	<path class="st7" d="M201.9,128.7c-10.3-31-23.2-58-41-83c-14.7-15.7-39.7-26.1-57.5-9.3c19.1,19.2,37.8,39.4,53.6,59
		c0.3,0.4,0.6,0.7,0.8,1.1l0,0c0,0,0,0,0.1,0.1c0.2,0.2,0.3,0.4,0.5,0.6c0.2,0.3,0.5,0.6,0.7,0.9c0,0,0,0,0,0c1.8,2.4,3,4.6,3.9,6.5
		c8.2,18.8-4.5,18.1-16.8,16.4c0,0,0,0,0,0l0,0c-0.6-0.2-21.6-5.5-21.5-5.5c-1.3-0.3-2.6-0.5-3.9-0.7c22.3,5.6,40,12.4,54.9,24.8
		c5.5,4.5,10.5,9.6,15.1,15c8.3,9.8,12.6,14,14.7,10.4C208.1,160.1,206.1,143.9,201.9,128.7z"/>
	
		<linearGradient id="SVGID_5_" gradientUnits="userSpaceOnUse" x1="5594.7681" y1="1041.4341" x2="5594.9805" y2="1041.4341" gradientTransform="matrix(-1 0 0 -1 5617.9473 1140.0293)">
		<stop  offset="0.1619" style="stop-color:#00C170"/>
		<stop  offset="1" style="stop-color:#005383"/>
	</linearGradient>
	<path class="st8" d="M23.2,98.9c-0.1-0.2-0.1-0.4-0.2-0.6C23,98.5,23.1,98.7,23.2,98.9z"/>
	<g>
		<linearGradient id="SVGID_6_" gradientUnits="userSpaceOnUse" x1="327.9117" y1="141.7239" x2="168.412" y2="123.6304">
			<stop  offset="0.1619" style="stop-color:#00C170"/>
			<stop  offset="1" style="stop-color:#005383"/>
		</linearGradient>
		<path class="st9" d="M146,121.1L146,121.1C146,121.1,146,121.1,146,121.1z"/>
		<linearGradient id="SVGID_7_" gradientUnits="userSpaceOnUse" x1="-99.4317" y1="123.9223" x2="297.1896" y2="114.1533">
			<stop  offset="0.1619" style="stop-color:#00C170"/>
			<stop  offset="1" style="stop-color:#005383"/>
		</linearGradient>
		<path class="st10" d="M162.8,104.7c-1-2.3-2.7-5-5.1-8.1C124.3,81,83.6,81.1,50.1,96.2C22.2,113,16.6,99.4,28,75
			C16.8,95.3,9.1,115,2.8,137.2c-4.6,18.2-3,29.7,0.7,29.9c2.5,0.1,6.1-3.9,10.6-9.5c12-14.5,26.9-26.3,44-34
			c21.7-9.8,44.1-12.5,66.4-8c-0.1-0.1,20.9,5.3,21.5,5.5C158.3,122.7,171,123.5,162.8,104.7z"/>
	</g>
</g>
</svg>
